<svg width="20" height="20" viewBox="0 0 20 20" fill="none" xmlns="http://www.w3.org/2000/svg">
<path fill-rule="evenodd" clip-rule="evenodd" d="M18.6592 4.98037C17.765 3.44835 16.552 2.23536 15.0199 1.34115C13.4875 0.446989 11.8148 0 10.0003 0C8.18604 0 6.51277 0.446989 4.98071 1.34115C3.44855 2.23522 2.23555 3.44822 1.34129 4.98037C0.446991 6.51261 0 8.18586 0 10C0 11.8142 0.447128 13.4872 1.34116 15.0195C2.23537 16.5516 3.44837 17.7646 4.98053 18.6588C6.51277 19.553 8.1859 20 10.0001 20C11.8144 20 13.4877 19.553 15.0198 18.6588C16.5519 17.7649 17.7649 16.5516 18.659 15.0195C19.5531 13.4873 20 11.8141 20 10C20 8.18568 19.5531 6.51238 18.6592 4.98037ZM16.0608 13.513C15.4346 14.5852 14.5854 15.4348 13.5131 16.061C12.4408 16.6872 11.2699 17 10.0001 17C8.73056 17 7.55953 16.6872 6.48712 16.061C5.41484 15.4347 4.56562 14.5852 3.93941 13.513C3.31306 12.4407 3 11.2697 3 10.0001C3 8.7304 3.3132 7.55941 3.93941 6.48713C4.56549 5.41485 5.41493 4.56545 6.48712 3.93928C7.5594 3.31302 8.73038 3 10.0001 3C11.2698 3 12.4408 3.31302 13.5131 3.93928C14.5854 4.56549 15.4346 5.41485 16.0608 6.48713C16.6871 7.55941 17 8.7304 17 10.0001C17 11.2697 16.6871 12.4407 16.0608 13.513Z" fill="#40D17D"/>
<path opacity="0.695536" fill-rule="evenodd" clip-rule="evenodd" d="M13.4227 6.26224C13.2579 6.08741 13.0621 6 12.8362 6C12.6103 6 12.415 6.08746 12.2497 6.26224L8.66578 10.0583L6.74989 8.02907C6.58478 7.85425 6.38949 7.76683 6.16344 7.76683C5.9374 7.76683 5.74193 7.85429 5.57687 8.02907L4.2476 9.43716C4.08249 9.61185 4 9.81902 4 10.0583C4 10.2974 4.08249 10.5046 4.2476 10.6793L8.0792 14.7376C8.24427 14.9123 8.43973 15 8.66564 15C8.89169 15 9.08711 14.9123 9.25227 14.7376L14.7522 8.91244C14.9171 8.73781 15 8.53073 15 8.29156C15 8.05233 14.9175 7.84525 14.7522 7.67043L13.4227 6.26224Z" fill="#40D17D"/>
</svg>
