<svg width="31" height="34" viewBox="0 0 31 34" fill="none" xmlns="http://www.w3.org/2000/svg">
<path fill-rule="evenodd" clip-rule="evenodd" d="M14 30.8892L23.0642 34L31 26.0484L21.8731 23L14 30.8892ZM17.4699 30.2752C17.1287 30.7111 16.5726 30.8998 16.2276 30.6964C15.8828 30.4931 15.8796 29.9752 16.2211 29.5393C16.5623 29.1034 17.1184 28.9147 17.4635 29.1181C17.8085 29.3214 17.8111 29.8393 17.4699 30.2752ZM20.397 31.3026C20.0558 31.7385 19.4997 31.9272 19.1546 31.7238C18.8099 31.5205 18.8067 31.0026 19.1481 30.5667C19.4897 30.1308 20.0455 29.9421 20.3906 30.1455C20.7354 30.3488 20.7383 30.8667 20.397 31.3026ZM26.8069 26.7786C27.1483 26.3427 27.7045 26.154 28.0497 26.3573C28.3945 26.5606 28.3977 27.0785 28.0564 27.5144C27.7151 27.9503 27.1589 28.139 26.8137 27.9357C26.4685 27.7323 26.4657 27.2145 26.8069 26.7786ZM23.8885 25.8173C24.2297 25.3814 24.7858 25.1927 25.1309 25.396C25.4757 25.5993 25.4789 26.1172 25.1374 26.5531C24.7961 26.989 24.24 27.1777 23.8949 26.9744C23.5502 26.7711 23.5472 26.2532 23.8885 25.8173ZM23.3092 31.1068C23.6539 31.3101 23.6572 31.8281 23.3156 32.264C22.9743 32.7 22.4182 32.8887 22.0731 32.6854C21.728 32.482 21.7251 31.9641 22.0663 31.5281C22.4079 31.0926 22.964 30.9038 23.3092 31.1068ZM22.2037 24.3682C22.5484 24.5716 22.5516 25.0895 22.2101 25.5254C21.8689 25.9614 21.3128 26.1501 20.9677 25.9467C20.623 25.7434 20.6198 25.2255 20.9613 24.7895C21.3025 24.3536 21.8586 24.1652 22.2037 24.3682Z" fill="#353535"/>
<path fill-rule="evenodd" clip-rule="evenodd" d="M31 25L28.0001 16.0002L19 13L21.9999 21.9994L31 25ZM24.2848 17.911C24.5631 17.6327 25.1225 17.7404 25.534 18.1521C25.9456 18.5638 26.0537 19.1232 25.7751 19.4015C25.4968 19.6798 24.9375 19.5721 24.5259 19.1604C24.1142 18.7487 24.0062 18.1893 24.2848 17.911Z" fill="#353535"/>
<path fill-rule="evenodd" clip-rule="evenodd" d="M9.50028 0L1 4L9.5002 8L18 4L9.50028 0ZM9.50028 4.81159C8.7964 4.81159 8.22522 4.44803 8.22522 4C8.22522 3.55159 8.79599 3.18841 9.50028 3.18841C10.2046 3.18841 10.7753 3.55197 10.7753 4C10.7749 4.44841 10.2042 4.81159 9.50028 4.81159Z" fill="#353535"/>
<path fill-rule="evenodd" clip-rule="evenodd" d="M11.711 15.9998C12.1346 15.8523 12.4887 16.0858 12.6112 16.5332L17.9211 11.5171L19 11.8569V5L10 9.25127V19L10.9098 18.1405C10.817 17.9853 10.7614 17.784 10.7614 17.5456C10.7614 16.8744 11.1868 16.1824 11.711 15.9998ZM17.5023 6.85591C18.0269 6.67977 18.4518 7.06153 18.4518 7.70855C18.4518 8.35558 18.0269 9.02311 17.5023 9.19924C16.9777 9.37538 16.5528 8.99362 16.5528 8.3466C16.5527 7.69949 16.9777 7.03204 17.5023 6.85591ZM14.7966 11.2445C15.3212 11.0683 15.7461 11.4501 15.7461 12.0971C15.7461 12.7441 15.3212 13.4117 14.7966 13.5878C14.272 13.7639 13.8472 13.3822 13.8472 12.7352C13.8472 12.0881 14.2725 11.4206 14.7966 11.2445ZM10.7614 11.0443C10.7614 10.3973 11.1863 9.7298 11.7109 9.55366C12.2354 9.37753 12.6603 9.75928 12.6603 10.4063C12.6603 11.0534 12.2354 11.7209 11.7109 11.897C11.1864 12.0731 10.7614 11.6914 10.7614 11.0443Z" fill="#353535"/>
<path fill-rule="evenodd" clip-rule="evenodd" d="M0 15.9469L8.87278 20L9 19.8813V9.1971L0 5V15.9469ZM7.2672 15.8581C7.79175 16.032 8.21663 16.691 8.21663 17.3298C8.21663 17.9686 7.79175 18.3454 7.2672 18.1716C6.74265 17.9977 6.31777 17.3386 6.31777 16.6999C6.31777 16.0611 6.74315 15.6842 7.2672 15.8581ZM4.50004 11.0309C5.02459 11.2048 5.44947 11.8638 5.44947 12.5026C5.44947 13.1414 5.02459 13.5183 4.50004 13.3444C3.97549 13.1705 3.55061 12.5115 3.55061 11.8727C3.55053 11.2339 3.97591 10.857 4.50004 11.0309ZM1.65209 6.83226C2.17664 7.00615 2.60152 7.6651 2.60152 8.30396C2.60152 8.94274 2.17664 9.31963 1.65209 9.14574C1.12754 8.97185 0.702658 8.3129 0.702658 7.67404C0.702658 7.03526 1.12754 6.65837 1.65209 6.83226Z" fill="#353535"/>
<path fill-rule="evenodd" clip-rule="evenodd" d="M17.9517 13L10 20.9349L13.1111 30L21 22.1261L17.9517 13ZM14.4277 26.3991C13.9917 26.7404 13.4734 26.7375 13.2704 26.3923C13.0674 26.0472 13.2558 25.491 13.6918 25.1497C14.1277 24.8084 14.646 24.8114 14.849 25.1562C15.052 25.5011 14.8637 26.0578 14.4277 26.3991ZM17.0806 16.991C16.6447 17.3323 16.1265 17.3293 15.9236 16.9845C15.7202 16.6397 15.9089 16.0833 16.3448 15.742C16.7807 15.4007 17.2989 15.4037 17.5018 15.7485C17.7052 16.0935 17.5165 16.6497 17.0806 16.991Z" fill="#353535"/>
</svg>
