<svg width="22" height="19" viewBox="0 0 22 19" fill="none" xmlns="http://www.w3.org/2000/svg">
<path fill-rule="evenodd" clip-rule="evenodd" d="M21.0668 5.68989C20.4447 5.06319 19.708 4.74982 18.8569 4.74982H14.2654C14.4456 4.25508 14.5356 3.72729 14.5356 3.16649C14.5356 2.16051 14.202 1.3813 13.535 0.828643C12.8678 0.2762 12.0228 0 10.9998 0C10.6889 0 10.4043 0.0721369 10.1465 0.216541C9.88867 0.360728 9.66357 0.564964 9.47128 0.828643C9.27903 1.09254 9.11326 1.35232 8.9742 1.60803C8.83492 1.86369 8.68348 2.16051 8.51987 2.49858C8.35621 2.83687 8.22123 3.0924 8.11485 3.26566C7.82843 3.71928 7.41912 4.25097 6.88725 4.86129C6.87083 4.88603 6.81351 4.95617 6.7153 5.07159C6.61709 5.1871 6.5393 5.27574 6.48207 5.33757C6.42484 5.39939 6.34103 5.48808 6.23044 5.60354C6.11975 5.71905 6.02154 5.81172 5.93572 5.88187C5.84976 5.95201 5.75774 6.02614 5.65949 6.10456C5.56127 6.18294 5.46508 6.2406 5.37096 6.27782C5.27692 6.31486 5.18894 6.33341 5.10711 6.33341H1.57151C1.13764 6.33341 0.767243 6.48829 0.460354 6.79742C0.153552 7.10642 0 7.47962 0 7.91669V15.8333C0 16.2704 0.15338 16.6436 0.460354 16.9529C0.767415 17.262 1.1376 17.4168 1.57151 17.4168H5.10711C5.58991 17.4168 6.50241 17.6602 7.84473 18.1467C9.39151 18.7158 10.7092 19 11.7978 19C12.9517 19 13.8807 18.668 14.5845 18.0043C15.2884 17.3406 15.6364 16.4356 15.628 15.289C16.1194 14.654 16.3648 13.9201 16.3648 13.0873C16.3648 12.906 16.3524 12.7287 16.328 12.5555C16.5982 12.0855 16.7496 11.5947 16.7824 11.0835H18.8572C19.7166 11.0835 20.4553 10.7702 21.0734 10.1435C21.6911 9.51683 22 8.77059 22 7.90482C21.9997 7.05525 21.6887 6.31712 21.0668 5.68989ZM2.90957 15.5985C2.754 15.7552 2.56992 15.8335 2.35716 15.8335C2.14422 15.8335 1.96005 15.7552 1.80461 15.5985C1.64904 15.4418 1.57138 15.2563 1.57138 15.0419C1.57138 14.8275 1.64908 14.6418 1.80461 14.4852C1.96023 14.3285 2.14422 14.2501 2.35716 14.2501C2.56992 14.2501 2.754 14.3285 2.90957 14.4852C3.06506 14.6418 3.1428 14.8274 3.1428 15.0419C3.1428 15.2563 3.06502 15.4418 2.90957 15.5985ZM19.9617 9.03068C19.6509 9.34405 19.2822 9.50067 18.8566 9.50067H14.7932C14.9159 9.64079 15.0181 9.83679 15.1 10.0883C15.1819 10.3397 15.2229 10.5686 15.2229 10.7747C15.2229 11.3438 15.0059 11.8343 14.5722 12.2465C14.7196 12.5104 14.7932 12.7951 14.7932 13.1C14.7932 13.4052 14.7215 13.7082 14.5783 14.0092C14.435 14.31 14.2406 14.5265 13.9951 14.6584C14.0359 14.9054 14.0565 15.1366 14.0565 15.3511C14.0565 16.7279 13.2832 17.4165 11.7363 17.4165C11.0733 17.4165 10.3387 17.2845 9.53259 17.0209C8.72644 16.7571 7.9346 16.4931 7.15703 16.2292C6.37947 15.9654 5.69616 15.8335 5.10681 15.8335H4.71401V7.91704H5.10681C5.68787 7.91704 6.26071 7.68195 6.82546 7.21174C7.07112 7.00543 7.48443 6.56832 8.06544 5.90045C8.6548 5.23259 9.11318 4.63487 9.44044 4.10695C9.54683 3.93369 9.69827 3.66568 9.89478 3.30288C10.4349 2.15657 10.8032 1.58355 10.9997 1.58355C11.5808 1.58355 12.0535 1.70928 12.4177 1.96069C12.7819 2.21229 12.9639 2.61417 12.9639 3.16666C12.9639 3.52132 12.9026 3.86975 12.7798 4.21193C12.657 4.55411 12.5221 4.8346 12.3747 5.05305C12.2274 5.2715 12.0924 5.49835 11.9696 5.73339C11.8469 5.96839 11.7856 6.16842 11.7856 6.33328H18.8569C19.266 6.33328 19.6303 6.49206 19.9496 6.80951C20.2687 7.12717 20.4282 7.49591 20.4282 7.9166C20.4282 8.34579 20.2728 8.71683 19.9617 9.03068Z" fill="#353535"/>
</svg>
