<?xml version="1.0" encoding="utf-8" ?>
<svg xmlns="http://www.w3.org/2000/svg" xmlns:xlink="http://www.w3.org/1999/xlink" width="99" height="66">
	<defs>
		<clipPath id="clip_0">
			<rect x="-41" y="-25" width="1440" height="1024" clip-rule="evenodd"/>
		</clipPath>
	</defs>
	<g clip-path="url(#clip_0)">
		<path fill="rgb(44,198,164)" stroke="none" d="M49.5 61.5852C44.6461 64.393 39.0107 66 33 66C14.7746 66 0 51.2254 0 33C0 14.7746 14.7746 0 33 0C39.0107 0 44.6461 1.60701 49.5 4.41481C39.6363 10.1207 33 20.7853 33 33C33 45.2147 39.6363 55.8793 49.5 61.5852L49.5 61.5852ZM49.5 61.5852C59.3637 55.8793 66 45.2147 66 33C66 20.7853 59.3637 10.1207 49.5 4.41481C54.3539 1.60701 59.9893 0 66 0C84.2254 0 99 14.7746 99 33C99 51.2254 84.2254 66 66 66C59.9893 66 54.3539 64.393 49.5 61.5852L49.5 61.5852Z" fill-rule="evenodd"/>
	</g>
</svg>
