<svg width="36" height="41" viewBox="0 0 36 41" fill="none" xmlns="http://www.w3.org/2000/svg">
<path fill-rule="evenodd" clip-rule="evenodd" d="M27.6771 16.0739C22.6881 5.3637 20.0952 1.29657 11.9431 1.46463C9.03993 1.52443 9.73739 -0.632886 7.5238 0.185603C5.31196 1.00453 7.21007 2.20236 4.94704 4.05455C-1.40319 9.25447 -0.817743 14.0654 2.127 25.5313C3.36878 30.3602 -0.864124 30.5972 0.810835 35.279C2.03293 38.6922 11.0466 40.1214 20.5564 36.6008C30.0662 33.081 36.069 26.0935 34.8469 22.6803C33.1715 17.9986 29.7796 20.5832 27.6771 16.0739ZM19.7065 32.85C11.0592 35.4822 3.95197 33.9336 3.6517 33.2458C3.13402 32.0587 6.44326 28.0995 16.3296 25.0898C26.2168 22.0805 31.7335 23.1963 32.3104 24.5222C32.6517 25.3051 28.3548 30.2178 19.7065 32.85ZM17.5412 27.2919C12.7193 28.8318 9.36811 30.5928 7.2 32.1785C8.72571 33.3716 11.5856 33.6627 14.4365 32.7525C18.0653 31.5942 20.2932 28.9348 19.4118 26.8131C19.4019 26.7874 19.3857 26.7645 19.3748 26.7391C18.7799 26.9084 18.1693 27.0916 17.5412 27.2919Z" fill="#353535"/>
</svg>
